<svg xmlns="http://www.w3.org/2000/svg" width="60.246" height="60.17" viewBox="0 0 60.246 60.17">
  <path id="task_alt_FILL0_wght400_GRAD0_opsz48" d="M110.085,236.17A30.514,30.514,0,0,1,98.2,233.876a29.118,29.118,0,0,1-15.908-15.908,31.733,31.733,0,0,1,0-23.692,29.363,29.363,0,0,1,6.355-9.552,30.968,30.968,0,0,1,31.966-6.92,30.96,30.96,0,0,1,8.8,4.964L126.181,186a25.169,25.169,0,0,0-7.371-4.061,26.1,26.1,0,0,0-8.725-1.429,25.574,25.574,0,1,0,0,51.145,25.056,25.056,0,0,0,25.572-25.572,28.173,28.173,0,0,0-.338-4.4,26,26,0,0,0-1.015-4.174l3.46-3.46a28.758,28.758,0,0,1,1.805,5.791,31.764,31.764,0,0,1,.6,6.243,29.994,29.994,0,0,1-8.725,21.436,29.362,29.362,0,0,1-9.552,6.355A30.319,30.319,0,0,1,110.085,236.17Zm-4.438-16.4-12.41-12.485,3.385-3.385,9.026,9.026,31.138-31.138,3.46,3.385Z" transform="translate(-80 -176)" fill="#52bb9c"/>
</svg>
