<?xml version="1.0" encoding="utf-8"?>
<!-- Generator: Adobe Illustrator 27.3.1, SVG Export Plug-In . SVG Version: 6.00 Build 0)  -->
<svg version="1.1" id="Layer_1" xmlns="http://www.w3.org/2000/svg" xmlns:xlink="http://www.w3.org/1999/xlink" x="0px" y="0px"
	 viewBox="0 0 30 30" style="enable-background:new 0 0 30 30;" xml:space="preserve">
<style type="text/css">
	.st0{fill:#FFEEEE;}
	.st1{fill:#FC635D;}
</style>
<g id="delete" transform="translate(-585 -2800)">
	<g transform="matrix(1, 0, 0, 1, 585, 2800)">
		<path id="Rectangle_8908-2" class="st0" d="M5,0h20c2.76,0,5,2.24,5,5v20c0,2.76-2.24,5-5,5H5c-2.76,0-5-2.24-5-5V5
			C0,2.24,2.24,0,5,0z"/>
	</g>
	<g id="trash" transform="translate(608.954 2817.746)">
		<path id="Path_45619" class="st1" d="M-3.51-7.58h-1.88C-5.68-8.99-6.91-10-8.35-10h-1.21c-1.44,0-2.67,1.01-2.96,2.42h-1.88
			c-0.33,0-0.6,0.27-0.6,0.6s0.27,0.6,0.6,0.6h0.6v7.86c0,1.67,1.35,3.02,3.02,3.02h3.64c1.67,0,3.02-1.35,3.02-3.02v-7.86h0.6
			c0.33,0,0.6-0.27,0.6-0.6C-2.91-7.31-3.18-7.58-3.51-7.58L-3.51-7.58z M-9.56-8.79h1.21c0.77,0,1.45,0.49,1.71,1.21h-4.63
			C-11.01-8.31-10.33-8.79-9.56-8.79z M-5.33,1.49c0,1-0.81,1.81-1.81,1.81h-3.63c-1,0-1.81-0.81-1.81-1.81l0,0v-7.86h7.26
			L-5.33,1.49z"/>
		<path id="Path_45620" class="st1" d="M-10.17,0.88c0.33,0,0.6-0.27,0.6-0.6v0v-3.64c0-0.33-0.27-0.6-0.6-0.6s-0.6,0.27-0.6,0.6
			v3.63C-10.77,0.61-10.51,0.88-10.17,0.88C-10.17,0.88-10.17,0.88-10.17,0.88z"/>
		<path id="Path_45621" class="st1" d="M-7.75,0.88c0.33,0,0.6-0.27,0.6-0.6v0v-3.64c0-0.33-0.27-0.6-0.6-0.6
			c-0.33,0-0.6,0.27-0.6,0.6v3.63C-8.35,0.61-8.09,0.88-7.75,0.88C-7.76,0.88-7.75,0.88-7.75,0.88z"/>
	</g>
</g>
</svg>
