<svg xmlns="http://www.w3.org/2000/svg" width="43" height="39" viewBox="0 0 43 39">
  <g id="Group_67600" data-name="Group 67600" transform="translate(-514 -376)">
    <rect id="Rectangle_9171" data-name="Rectangle 9171" width="43" height="39" rx="5" transform="translate(514 376)" fill="#f0f0ff"/>
    <path id="form" d="M10.268,10.383a3.115,3.115,0,1,0,0,6.23h4.153a3.115,3.115,0,0,0,0-6.23ZM15.46,13.5a1.038,1.038,0,0,1-1.038,1.038H10.268a1.038,1.038,0,1,1,0-2.077h4.153A1.038,1.038,0,0,1,15.46,13.5Zm2.077,6.23A1.038,1.038,0,0,1,16.5,20.766H8.192a1.038,1.038,0,1,1,0-2.077H16.5A1.038,1.038,0,0,1,17.536,19.728ZM20.17,3.241,18.448,1.521A5.158,5.158,0,0,0,14.778,0H8.192A5.2,5.2,0,0,0,3,5.192V19.728A5.2,5.2,0,0,0,8.192,24.92H16.5a5.2,5.2,0,0,0,5.192-5.192V6.912a5.158,5.158,0,0,0-1.52-3.671ZM18.7,4.709a3.219,3.219,0,0,1,.392.483H16.5V2.6a3.044,3.044,0,0,1,.482.391Zm.912,15.019A3.115,3.115,0,0,1,16.5,22.843H8.192a3.115,3.115,0,0,1-3.115-3.115V5.192A3.115,3.115,0,0,1,8.192,2.077h6.23V5.192A2.077,2.077,0,0,0,16.5,7.268h3.115Z" transform="translate(523 383)" fill="#999ded"/>
  </g>
</svg>
