<?xml version="1.0" encoding="utf-8"?>
<!-- Generator: Adobe Illustrator 27.3.1, SVG Export Plug-In . SVG Version: 6.00 Build 0)  -->
<svg version="1.1" id="Layer_1" xmlns="http://www.w3.org/2000/svg" xmlns:xlink="http://www.w3.org/1999/xlink" x="0px" y="0px"
	 viewBox="0 0 30 30" style="enable-background:new 0 0 30 30;" xml:space="preserve">
<style type="text/css">
	.st0{fill:#E7F0FC;}
	.st1{fill:#2A6DD9;}
</style>
<g id="Edit" transform="translate(15 10)">
	<g transform="matrix(1, 0, 0, 1, -15, -10)">
		<path id="Rectangle_8643-2" class="st0" d="M5,0h20c2.76,0,5,2.24,5,5v20c0,2.76-2.24,5-5,5H5c-2.76,0-5-2.24-5-5V5
			C0,2.24,2.24,0,5,0z"/>
	</g>
	<g id="edit_2_" transform="translate(9.128 9.128)">
		<path id="Path_45034" class="st1" d="M-5.87-9.55l-5.97,5.97c-0.46,0.46-0.72,1.08-0.72,1.73v0.66c0,0.27,0.22,0.49,0.49,0.49l0,0
			h0.66c0.65,0,1.27-0.26,1.73-0.72l5.97-5.97c0.6-0.6,0.6-1.56,0-2.16C-4.32-10.13-5.27-10.13-5.87-9.55L-5.87-9.55z M-4.4-8.08
			l-5.97,5.97c-0.28,0.27-0.65,0.43-1.04,0.43h-0.17v-0.17c0-0.39,0.16-0.76,0.43-1.04l5.97-5.97c0.22-0.21,0.56-0.21,0.78,0
			C-4.19-8.64-4.19-8.29-4.4-8.08z"/>
		<path id="Path_45035" class="st1" d="M-3.74-5.61c-0.27,0-0.49,0.22-0.49,0.49l0,0v2.46h-1.96C-7-2.66-7.66-2-7.66-1.19v1.96
			h-4.89c-0.81,0-1.47-0.66-1.47-1.46v-6.85c0-0.81,0.66-1.47,1.47-1.47c0,0,0,0,0,0h4.43c0.27,0,0.49-0.22,0.49-0.49
			c0-0.27-0.22-0.49-0.49-0.49h-4.43C-13.9-10-15-8.9-15-7.55v6.85c0,1.35,1.1,2.45,2.45,2.45H-7c0.65,0,1.27-0.26,1.73-0.72
			l1.3-1.3C-3.51-0.73-3.25-1.35-3.26-2v-3.12C-3.26-5.39-3.47-5.61-3.74-5.61L-3.74-5.61z M-5.96,0.34
			c-0.2,0.2-0.45,0.33-0.72,0.39v-1.92c0-0.27,0.22-0.49,0.49-0.49c0,0,0,0,0,0h1.92c-0.06,0.27-0.2,0.52-0.39,0.72L-5.96,0.34z"/>
	</g>
</g>
</svg>
