<?xml version="1.0" encoding="utf-8"?>
<!-- Generator: Adobe Illustrator 27.3.1, SVG Export Plug-In . SVG Version: 6.00 Build 0)  -->
<svg version="1.1" id="Layer_1" xmlns="http://www.w3.org/2000/svg" xmlns:xlink="http://www.w3.org/1999/xlink" x="0px" y="0px"
	 viewBox="0 0 30 30" style="enable-background:new 0 0 30 30;" xml:space="preserve">
<style type="text/css">
	.st0{fill:#E7F0FC;}
	.st1{fill:#2A6DD9;stroke:#2A6DD9;stroke-width:0.2;}
</style>
<g id="Download" transform="translate(-485 -2800)">
	<g transform="matrix(1, 0, 0, 1, 485, 2800)">
		<path id="Rectangle_8643-2" class="st0" d="M5,0h20c2.76,0,5,2.24,5,5v20c0,2.76-2.24,5-5,5H5c-2.76,0-5-2.24-5-5V5
			C0,2.24,2.24,0,5,0z"/>
	</g>
	<g id="download_4_" transform="translate(508.271 2818.271)">
		<path id="Path_45720" class="st1" d="M-9.46,0.16c0.66,0.66,1.72,0.66,2.38,0c0,0,0,0,0,0l1.8-1.8c0.21-0.23,0.18-0.59-0.05-0.79
			c-0.21-0.19-0.53-0.19-0.75,0l-1.64,1.64v-8.65c0-0.31-0.25-0.56-0.56-0.56l0,0c-0.31,0-0.56,0.25-0.56,0.56L-8.84-0.8l-1.63-1.63
			c-0.23-0.21-0.58-0.2-0.79,0.02c-0.2,0.22-0.2,0.55,0,0.77L-9.46,0.16z"/>
		<path id="Path_45721" class="st1" d="M-2.1-1.03L-2.1-1.03c-0.31,0-0.56,0.25-0.56,0.56l0,0v2.24c0,0.31-0.25,0.56-0.56,0.56
			c0,0,0,0,0,0h-10.1c-0.31,0-0.56-0.25-0.56-0.56l0,0v-2.24c0-0.31-0.25-0.56-0.56-0.56l0,0c-0.31,0-0.56,0.25-0.56,0.56
			c0,0,0,0,0,0v2.24c0,0.93,0.75,1.68,1.68,1.68h10.09c0.93,0,1.68-0.75,1.68-1.68v-2.24C-1.54-0.78-1.79-1.03-2.1-1.03z"/>
	</g>
</g>
</svg>
