<?xml version="1.0" encoding="utf-8"?>
<!-- Generator: Adobe Illustrator 27.3.1, SVG Export Plug-In . SVG Version: 6.00 Build 0)  -->
<svg version="1.1" id="Layer_1" xmlns="http://www.w3.org/2000/svg" xmlns:xlink="http://www.w3.org/1999/xlink" x="0px" y="0px"
	 viewBox="0 0 30 30" style="enable-background:new 0 0 30 30;" xml:space="preserve">
<style type="text/css">
	.st0{fill:#E7F0FC;}
	.st1{fill:#2A6DD9;}
</style>
<g transform="matrix(1, 0, 0, 1, -15, -10)">
	<path id="Rectangle_8643-2" class="st0" d="M20,10h20c2.8,0,5,2.2,5,5v20c0,2.8-2.2,5-5,5H20c-2.8,0-5-2.2-5-5V15
		C15,12.2,17.2,10,20,10z"/>
</g>
<g id="_01_align_center" transform="translate(6.889 5.916)">
	<path id="Path_45550" class="st1" d="M16.1,8.5L16.1,8.5C15.5,7.2,13.2,3,8.1,3s-7.4,4.2-8,5.5C0,8.9,0,9.3,0.1,9.6
		c0.6,1.3,2.9,5.5,8,5.5s7.4-4.2,8-5.5C16.3,9.3,16.3,8.9,16.1,8.5z M8.1,13.8c-4.3,0-6.3-3.6-6.8-4.7C1.9,8,3.9,4.4,8.1,4.4
		s6.2,3.6,6.8,4.7C14.4,10.2,12.4,13.8,8.1,13.8L8.1,13.8z"/>
	<path id="Path_45551" class="st1" d="M8.1,5.7c-1.9,0-3.4,1.5-3.4,3.4s1.5,3.4,3.4,3.4s3.4-1.5,3.4-3.4S10,5.7,8.1,5.7L8.1,5.7z
		 M8.1,11.1c-1.1,0-2-0.9-2-2c0-1.1,0.9-2,2-2c1.1,0,2,0.9,2,2l0,0C10.1,10.2,9.2,11.1,8.1,11.1z"/>
</g>
</svg>
