<svg width="14" height="15" viewBox="0 0 14 15" fill="none" xmlns="http://www.w3.org/2000/svg">
<path d="M8.469 3.629C8.62946 3.629 8.78334 3.69274 8.8968 3.8062C9.01026 3.91966 9.074 4.07354 9.074 4.234C9.074 4.39446 9.01026 4.54834 8.8968 4.6618C8.78334 4.77526 8.62946 4.839 8.469 4.839H3.629C3.46854 4.839 3.31466 4.77526 3.2012 4.6618C3.08774 4.54834 3.024 4.39446 3.024 4.234C3.024 4.07354 3.08774 3.91966 3.2012 3.8062C3.31466 3.69274 3.46854 3.629 3.629 3.629H8.469ZM13.131 14.34C13.0752 14.3967 13.0086 14.4417 12.9352 14.4724C12.8618 14.5032 12.7831 14.519 12.7035 14.519C12.6239 14.519 12.5452 14.5032 12.4718 14.4724C12.3984 14.4417 12.3318 14.3967 12.276 14.34L10.82 12.884C10.2494 13.2443 9.566 13.3815 8.90053 13.2696C8.23506 13.1576 7.63421 12.8043 7.2129 12.2772C6.79158 11.75 6.57936 11.0861 6.61684 10.4123C6.65431 9.73851 6.93884 9.10218 7.41601 8.62501C7.89318 8.14784 8.52951 7.86331 9.20329 7.82584C9.87707 7.78836 10.541 8.00058 11.0682 8.4219C11.5953 8.84321 11.9486 9.44406 12.0606 10.1095C12.1725 10.775 12.0353 11.4584 11.675 12.029L13.131 13.485C13.1877 13.5408 13.2327 13.6074 13.2634 13.6808C13.2942 13.7542 13.31 13.8329 13.31 13.9125C13.31 13.9921 13.2942 14.0708 13.2634 14.1442C13.2327 14.2176 13.1877 14.2842 13.131 14.34ZM9.376 12.1C9.67505 12.1 9.96738 12.0113 10.216 11.8452C10.4647 11.679 10.6585 11.4429 10.7729 11.1666C10.8873 10.8903 10.9173 10.5863 10.8589 10.293C10.8006 9.99972 10.6566 9.73031 10.4451 9.51885C10.2337 9.3074 9.96428 9.16339 9.67098 9.10505C9.37768 9.04671 9.07366 9.07665 8.79738 9.19109C8.5211 9.30553 8.28496 9.49933 8.11882 9.74798C7.95268 9.99663 7.864 10.289 7.864 10.588C7.864 10.7866 7.90311 10.9832 7.97909 11.1666C8.05508 11.3501 8.16645 11.5167 8.30685 11.6571C8.44726 11.7975 8.61394 11.9089 8.79738 11.9849C8.98083 12.0609 9.17744 12.1 9.376 12.1ZM6.654 13.31H3.025C2.78648 13.31 2.5503 13.263 2.32997 13.1716C2.10963 13.0803 1.90946 12.9464 1.74089 12.7777C1.57233 12.6089 1.43868 12.4086 1.34758 12.1882C1.25649 11.9677 1.20974 11.7315 1.21 11.493V3.025C1.21 2.54363 1.40122 2.08198 1.7416 1.7416C2.08198 1.40122 2.54363 1.21 3.025 1.21H10.284C10.3628 1.21 10.4408 1.22552 10.5136 1.25567C10.5864 1.28583 10.6525 1.33002 10.7083 1.38574C10.764 1.44145 10.8082 1.50759 10.8383 1.58039C10.8685 1.65319 10.884 1.73121 10.884 1.81V6.654C10.884 6.81446 10.9477 6.96834 11.0612 7.0818C11.1747 7.19526 11.3285 7.259 11.489 7.259C11.6495 7.259 11.8033 7.19526 11.9168 7.0818C12.0303 6.96834 12.094 6.81446 12.094 6.654V1.815C12.094 1.33432 11.9033 0.873277 11.5638 0.533013C11.2243 0.19275 10.7637 0.00105934 10.283 0H3.025C2.22296 0.000794227 1.454 0.319754 0.886879 0.886879C0.319754 1.454 0.000794227 2.22296 0 3.025V11.494C0.000794227 12.296 0.319754 13.065 0.886879 13.6321C1.454 14.1992 2.22296 14.5182 3.025 14.519H6.654C6.81446 14.519 6.96834 14.4553 7.0818 14.3418C7.19526 14.2283 7.259 14.0745 7.259 13.914C7.259 13.7535 7.19526 13.5997 7.0818 13.4862C6.96834 13.3727 6.81446 13.309 6.654 13.309V13.31Z" fill="#2A6DD9"/>
</svg>
