<svg xmlns="http://www.w3.org/2000/svg" width="15.615" height="16.389" viewBox="0 0 15.615 16.389">
  <path id="Path_43969" data-name="Path 43969" d="M16.034,11.057l-1.775-6.4a6.363,6.363,0,0,0-12.344.322L.542,11.16a2.048,2.048,0,0,0,2,2.492H5a3.413,3.413,0,0,0,6.69,0h2.369a2.048,2.048,0,0,0,1.973-2.594ZM8.348,15.017a2.048,2.048,0,0,1-1.922-1.365h3.845A2.048,2.048,0,0,1,8.348,15.017Zm6.256-3a.678.678,0,0,1-.546.27H2.541a.683.683,0,0,1-.666-.831L3.248,5.277a5,5,0,0,1,9.693-.254l1.775,6.4a.678.678,0,0,1-.111.6Z" transform="translate(-0.494 0.004)" fill="#003ea2"/>
</svg>
