<svg width="147" height="146" viewBox="0 0 147 146" fill="none" xmlns="http://www.w3.org/2000/svg">
<path d="M73 -5.0287e-05C87.438 -5.0287e-05 101.552 4.27599 113.557 12.2873C125.561 20.2987 134.918 31.6856 140.443 45.0079C145.968 58.3303 147.414 72.9899 144.597 87.1329C141.781 101.276 134.828 114.267 124.619 124.464C114.41 134.66 101.402 141.604 87.2416 144.417C73.081 147.23 58.4031 145.787 45.0641 140.268C31.7251 134.75 20.3241 125.405 12.3027 113.415C4.28137 101.425 0 87.3291 0 72.9091C0 53.5724 7.69105 35.0276 21.3812 21.3545C35.0714 7.68142 53.6392 -5.0287e-05 73 -5.0287e-05Z" fill="#F5C779"/>
<path d="M23.146 126.466C31.8702 134.566 42.4442 140.414 53.9479 143.5C65.4515 146.587 77.5361 146.818 89.1499 144.175C100.764 141.532 111.555 136.094 120.584 128.335C129.613 120.575 136.606 110.729 140.955 99.6538C145.304 88.5785 146.877 76.6094 145.538 64.7883C144.198 52.9671 139.985 41.6522 133.267 31.8282C126.549 22.0042 117.529 13.9689 106.992 8.42162C96.4545 2.87437 84.7195 -0.0167321 72.808 -5.0287e-05V72.9091L23.146 126.466Z" fill="#52BB9C"/>
</svg>
