<svg xmlns="http://www.w3.org/2000/svg" width="30" height="30" viewBox="0 0 30 30">
  <g id="Group_66608" data-name="Group 66608" transform="translate(-274 -50)">
    <rect id="Rectangle_2587" data-name="Rectangle 2587" width="30" height="30" rx="4" transform="translate(274 50)" fill="#ebf0f8"/>
    <g id="magnifying-glass" transform="translate(282 58)">
      <path id="Path_2" data-name="Path 2" d="M13.5,12.875l-3.3-3.3a5.791,5.791,0,1,0-.572.572l3.3,3.3a.409.409,0,0,0,.286.12.4.4,0,0,0,.286-.12A.407.407,0,0,0,13.5,12.875ZM.859,5.785A4.974,4.974,0,1,1,5.833,10.76,4.979,4.979,0,0,1,.859,5.785Z" transform="translate(0.314 0.364)" fill="#7d8eaa"/>
      <path id="Path_2_-_Outline" data-name="Path 2 - Outline" d="M13.066,13.795a.786.786,0,0,1-.551-.23l-3.051-3.05a6.155,6.155,0,1,1,1.1-1.1l3.051,3.05a.782.782,0,0,1-.551,1.333Zm-3.559-4.3,3.54,3.539a.034.034,0,0,0,.019.01.022.022,0,0,0,.014,0l0-.005a.03.03,0,0,0,0-.038L9.546,9.455l.23-.265a5.4,5.4,0,1,0-.534.534ZM5.7,10.993A5.341,5.341,0,1,1,11.04,5.651,5.348,5.348,0,0,1,5.7,10.993Zm0-9.93a4.589,4.589,0,1,0,4.589,4.587A4.593,4.593,0,0,0,5.7,1.063Z" transform="translate(0.45 0.5)" fill="#7d8eaa"/>
    </g>
  </g>
</svg>
