<svg width="46" height="43" viewBox="0 0 46 43" fill="none" xmlns="http://www.w3.org/2000/svg">
<path d="M0 16.6329V14.3929C0.283 14.3759 0.17 14.1609 0.165 14.0249C0.165 13.9309 0.074 13.8459 0.097 13.7319C0.401162 12.1309 0.947427 10.5855 1.717 9.14893C2.96512 6.87752 4.74316 4.941 6.9 3.50393C8.74666 2.25885 10.7798 1.31572 12.923 0.709934C13.3964 0.549796 13.8829 0.431672 14.377 0.356934C14.8545 0.323701 15.3296 0.262597 15.8 0.173934C16.7635 0.0199361 17.7406 -0.032018 18.715 0.0189341C19.4966 -0.0240736 20.2806 0.0151416 21.054 0.135934C21.7134 0.185676 22.3697 0.270798 23.02 0.390934C24.4281 0.751962 25.8105 1.20664 27.158 1.75193C28.946 2.53419 30.6055 3.58237 32.08 4.86093C33.4163 6.02971 34.5456 7.41589 35.42 8.96093C36.5369 10.8526 37.1466 13.0006 37.19 15.1969C37.1819 15.2862 37.1842 15.3762 37.197 15.4649C37.2998 16.0047 37.3086 16.5582 37.223 17.1009C37.0883 18.2449 36.8115 19.3675 36.399 20.4429C35.8632 21.7902 35.1575 23.0635 34.299 24.2319C33.5668 25.1962 32.7263 26.0733 31.794 26.8459C30.8982 27.6313 29.919 28.316 28.874 28.8879C26.9659 29.9653 24.8909 30.7157 22.735 31.1079C21.5795 31.3407 20.4062 31.4745 19.228 31.5079C13.421 31.4949 7.613 31.4859 1.806 31.5189C1.42708 31.5615 1.04469 31.4779 0.718148 31.281C0.391609 31.0841 0.139173 30.7849 0 30.4299L0 29.7099C0.17033 29.3549 0.408075 29.0363 0.7 28.7719C1.716 27.7659 2.722 26.7489 3.74 25.7449C3.92 25.5679 3.962 25.4719 3.76 25.2559C3.39509 24.8529 3.05576 24.4274 2.744 23.9819C1.66675 22.5294 0.869802 20.8887 0.394 19.1439C0.316315 18.5645 0.184402 17.9937 0 17.4389L0 17.0809C0.157 16.9319 0.024 16.7809 0 16.6329ZM18.778 14.3019H19.852C22.284 14.3019 24.7173 14.3019 27.152 14.3019C27.5126 14.3119 27.8634 14.1837 28.1326 13.9435C28.4018 13.7034 28.569 13.3694 28.6 13.0099C28.6354 12.7066 28.5653 12.4003 28.4014 12.1426C28.2374 11.8849 27.9898 11.6915 27.7 11.5949C27.3337 11.4934 26.9551 11.4432 26.575 11.4459C21.275 11.4369 15.981 11.4459 10.684 11.4339C10.3308 11.4383 9.97866 11.4717 9.631 11.5339C9.36286 11.5995 9.12097 11.745 8.9374 11.9512C8.75383 12.1574 8.63724 12.4145 8.60308 12.6884C8.56892 12.9623 8.61881 13.2402 8.74612 13.4851C8.87344 13.73 9.07218 13.9305 9.316 14.0599C9.68893 14.2195 10.0904 14.3019 10.496 14.3019C13.256 14.3109 16.018 14.3019 18.778 14.3019ZM15.918 20.0359C17.718 20.0359 19.528 20.0309 21.333 20.0359C21.6871 20.0362 22.034 19.9356 22.333 19.7459C22.5654 19.5454 22.7402 19.2865 22.8394 18.996C22.9385 18.7054 22.9584 18.3937 22.897 18.0929C22.7313 17.7911 22.4825 17.5432 22.1801 17.3785C21.8777 17.2139 21.5344 17.1394 21.191 17.1639C17.581 17.1693 13.9713 17.1693 10.362 17.1639C9.96567 17.1467 9.57245 17.2409 9.227 17.4359C9.00318 17.5695 8.82468 17.7672 8.71465 18.0035C8.60463 18.2398 8.56817 18.5037 8.61 18.7609C8.62452 19.0057 8.70878 19.2413 8.85284 19.4397C8.9969 19.6382 9.19474 19.7913 9.423 19.8809C9.75773 19.9898 10.1094 20.0372 10.461 20.0209C12.281 20.0339 14.1 20.0269 15.92 20.0269" fill="url(#paint0_linear_85_218)"/>
<path d="M25.271 42.9729C24.768 42.8363 24.2529 42.7492 23.733 42.7129C20.2838 42.1467 17.0363 40.7094 14.298 38.5369C12.8867 37.3787 11.6688 36.0031 10.69 34.4619C10.826 34.3189 10.967 34.3749 11.09 34.3749C13.822 34.3749 16.554 34.3959 19.29 34.3649C22.0602 34.3215 24.7991 33.7711 27.371 32.7409C28.968 32.0972 30.4919 31.2853 31.917 30.3189C34.4835 28.618 36.6015 26.3226 38.091 23.6279C38.9224 22.0844 39.5142 20.4234 39.846 18.7019C39.93 18.3089 39.877 17.8249 39.946 17.4549C39.941 16.9392 40.026 16.4265 40.197 15.9399C41.36 16.87 42.3879 17.9574 43.251 19.1709C44.2227 20.5193 44.9451 22.0309 45.384 23.6339C45.6407 24.6201 45.7846 25.6323 45.813 26.6509C45.8801 28.36 45.6347 30.067 45.089 31.6879C44.4518 33.5261 43.4467 35.2151 42.135 36.6519C41.921 36.8899 41.943 37.0219 42.156 37.2309C43.189 38.2459 44.209 39.2739 45.232 40.2989C45.4552 40.4508 45.6321 40.6614 45.7428 40.9077C45.8536 41.1539 45.8939 41.4259 45.8595 41.6937C45.825 41.9615 45.7169 42.2144 45.5474 42.4245C45.3779 42.6346 45.1534 42.7937 44.899 42.8839C44.8652 42.9095 44.8349 42.9394 44.809 42.9729H25.271Z" fill="url(#paint1_linear_85_218)"/>
<defs>
<linearGradient id="paint0_linear_85_218" x1="29.2285" y1="8.00856" x2="6.90413" y2="33.1076" gradientUnits="userSpaceOnUse">
<stop stop-color="#0099FA"/>
<stop offset="1" stop-color="#003EA2"/>
</linearGradient>
<linearGradient id="paint1_linear_85_218" x1="40.5942" y1="35.9984" x2="13.9959" y2="25.5272" gradientUnits="userSpaceOnUse">
<stop stop-color="#91D5FD"/>
<stop offset="1" stop-color="#2A6DD9"/>
</linearGradient>
</defs>
</svg>
