<?xml version="1.0" encoding="UTF-8" standalone="no"?>
<!DOCTYPE svg PUBLIC "-//W3C//DTD SVG 1.1//EN" "http://www.w3.org/Graphics/SVG/1.1/DTD/svg11.dtd">
<svg width="100%" height="100%" viewBox="0 0 24 24" version="1.1" xmlns="http://www.w3.org/2000/svg" xmlns:xlink="http://www.w3.org/1999/xlink" xml:space="preserve" xmlns:serif="http://www.serif.com/" style="fill-rule:evenodd;clip-rule:evenodd;stroke-linejoin:round;stroke-miterlimit:2;">
    <g transform="matrix(0.916667,0,0,0.916667,1,1)">
        <path d="M0,5C0,2.239 2.239,0 5,0L19,0C21.761,0 24,2.239 24,5L24,19C24,21.761 21.761,24 19,24L5,24C2.239,24 0,21.761 0,19L0,5Z" style="fill:rgb(42,108,215);fill-rule:nonzero;"/>
    </g>
    <g transform="matrix(0.916667,0,0,0.916667,9.25,7.3873)">
        <path d="M6.095,0.89C6.099,0.724 6.055,0.561 5.967,0.421C5.879,0.281 5.751,0.171 5.599,0.103C5.448,0.036 5.28,0.016 5.117,0.045C4.955,0.073 4.804,0.15 4.685,0.265L0.263,4.421C0.18,4.499 0.114,4.593 0.068,4.697C0.023,4.801 0,4.914 0,5.028C0,5.141 0.023,5.254 0.068,5.358C0.114,5.463 0.18,5.557 0.263,5.635L4.685,9.791C4.763,9.871 4.857,9.934 4.961,9.977C5.065,10.02 5.176,10.041 5.288,10.04C5.4,10.039 5.511,10.015 5.614,9.97C5.717,9.925 5.809,9.86 5.886,9.778C5.963,9.696 6.023,9.599 6.061,9.494C6.1,9.389 6.117,9.277 6.111,9.165C6.105,9.052 6.077,8.943 6.028,8.842C5.978,8.741 5.909,8.651 5.825,8.578L2.048,5.028L5.825,1.479C5.907,1.403 5.973,1.313 6.019,1.211C6.066,1.11 6.091,1.001 6.095,0.89Z" style="fill:white;"/>
    </g>
</svg>
