<svg xmlns="http://www.w3.org/2000/svg" width="20" height="20" viewBox="0 0 20 20">
  <path id="captive_portal_FILL0_wght400_GRAD0_opsz48" d="M87.85,194.225a11.87,11.87,0,0,1-1.075-2.062,14.073,14.073,0,0,1-.7-2.413H82.3a8.248,8.248,0,0,0,5.55,4.475ZM81.8,188.25h4q-.075-.6-.1-1.087t-.025-1.113q0-.525.013-1.062t.087-1.213H81.8a7.047,7.047,0,0,0-.237,1.113,9.685,9.685,0,0,0-.062,1.163,8.76,8.76,0,0,0,.063,1.125A7.289,7.289,0,0,0,81.8,188.25Zm.5-5.975h3.75a14.977,14.977,0,0,1,.75-2.475,11.952,11.952,0,0,1,1.075-2.05,10.984,10.984,0,0,0-3.375,1.738A8.966,8.966,0,0,0,82.3,182.275Zm5.3,0h4.825a12.417,12.417,0,0,0-.963-2.762A8.321,8.321,0,0,0,90,177.45a8.52,8.52,0,0,0-1.463,2.125A12.678,12.678,0,0,0,87.6,182.275Zm6.375,0H97.7a8.954,8.954,0,0,0-2.312-2.775,10.01,10.01,0,0,0-3.237-1.725,11.348,11.348,0,0,1,1.063,2.05A18.111,18.111,0,0,1,93.975,182.275ZM90,196a10.078,10.078,0,0,1-3.925-.762,9.76,9.76,0,0,1-3.175-2.113,9.964,9.964,0,0,1-2.125-3.163A9.846,9.846,0,0,1,80,186.05a10.027,10.027,0,0,1,.775-3.937,9.891,9.891,0,0,1,2.125-3.187,10.1,10.1,0,0,1,3.175-2.137,10.175,10.175,0,0,1,7.85,0,10.1,10.1,0,0,1,3.175,2.137,9.891,9.891,0,0,1,2.125,3.188A10.027,10.027,0,0,1,100,186.05q0,.425-.025.85a7.383,7.383,0,0,1-.1.85h-1.55a6.132,6.132,0,0,0,.138-.812q.038-.387.038-.887a9.687,9.687,0,0,0-.062-1.163,7.048,7.048,0,0,0-.238-1.113h-4q.075.75.113,1.238t.037,1.038q0,.35-.013.712t-.062.988H92.75q.05-.525.075-.9t.025-.8q0-.525-.025-1.012t-.125-1.263H87.325q-.1.775-.125,1.263t-.025,1.012q0,.5.025.962t.125,1.238H91.75v1.5H87.6a16.142,16.142,0,0,0,1.05,2.975A5.5,5.5,0,0,0,90,194.5a8.327,8.327,0,0,0,.963-1.225,12.814,12.814,0,0,0,.787-1.4v3.975q-.425.075-.863.112T90,196Zm7.95-.975-3.2-3.2V194.4h-1.5v-5.15H98.4v1.5H95.8l3.2,3.2Z" transform="translate(-80 -176)" fill="#2a6dd9"/>
</svg>
